<svg id="Layer_1" data-name="Layer 1" xmlns="http://www.w3.org/2000/svg" viewBox="0 0 513.58 206.41"><defs><style>.cls-1{fill:#666;}.cls-2,.cls-3{fill:#eea225;}.cls-3{font-size:27px;font-family:Tahoma-Bold, Tahoma;font-weight:700;}</style></defs><title>ebec</title><path class="cls-1" d="M314.43,175.32a40.4,40.4,0,0,0,6-7.74L309.88,157a85,85,0,0,1-6.35,7.44,25.2,25.2,0,1,1-4-38.89l-21.39,21.39,10.59,10.59,26.69-26.7-.06-.09,5.09-5.13a40.57,40.57,0,1,0-6,49.71Z" transform="translate(-46.71 -43.83)"/><path class="cls-2" d="M115.64,137.24a9.85,9.85,0,1,1-9.82,9.85A9.86,9.86,0,0,1,115.64,137.24Zm-14.87-22.5,12.37,9-9.82,13.53h0c-.14.18-.28.38-.42.57A15.71,15.71,0,0,0,100.69,152c0,.14.07.28.13.43.11.3.25.6.38.9.06.15.1.3.17.45s.11.18.15.28c.17.36.35.7.55,1v0c.1.18.23.35.35.52s.36.56.55.82l0,0,.1.15.3.38h0l9.73,13.4-12.32,9a40.3,40.3,0,0,0-51.32-8.62,103.9,103.9,0,0,1,0-47.35A40.32,40.32,0,0,0,100.77,114.74Z" transform="translate(-46.71 -43.83)"/><path class="cls-2" d="M148.89,111.08a9.85,9.85,0,1,1-12.4-6.3A9.85,9.85,0,0,1,148.89,111.08ZM165.69,90,161,104.53l-15.9-5.16v0l-.68-.23a15.72,15.72,0,0,0-14.12,2.25c-.12.09-.25.16-.36.25s-.5.42-.74.63-.25.2-.37.31-.15.16-.22.23c-.28.27-.56.55-.83.85h0c-.14.16-.26.33-.39.49s-.43.52-.61.78l0,0-.11.14-.27.4v0l-9.74,13.39-12.32-9A40.3,40.3,0,0,0,96.6,58.46a103.92,103.92,0,0,1,45-14.63A40.32,40.32,0,0,0,165.69,90Z" transform="translate(-46.71 -43.83)"/><path class="cls-2" d="M184,134.61a9.85,9.85,0,1,1,2.16-13.74A9.85,9.85,0,0,1,184,134.61Zm25.26,9.46H194V127.35l0,0c0-.24,0-.48,0-.71a15.72,15.72,0,0,0-6.5-12.73c-.12-.09-.22-.19-.35-.27s-.55-.34-.83-.5-.26-.18-.41-.26l-.28-.14c-.35-.19-.69-.36-1.06-.52v0c-.19-.08-.4-.14-.59-.22s-.62-.24-.93-.34h0l-.17-.06-.46-.13h0l-15.74-5.12,4.71-14.48a40.3,40.3,0,0,0,46.59-23.19,103.89,103.89,0,0,1,27.83,38.3A40.33,40.33,0,0,0,209.3,144.07Z" transform="translate(-46.71 -43.83)"/><path class="cls-2" d="M172.52,175.32a9.85,9.85,0,1,1,13.74-2.2A9.85,9.85,0,0,1,172.52,175.32Zm-1.19,26.95-4.72-14.56,15.9-5.17h0l.68-.21a15.73,15.73,0,0,0,10.11-10.12c0-.14.1-.27.15-.42.09-.31.15-.63.22-.95,0-.16.09-.3.13-.46s0-.21,0-.31c.07-.39.13-.77.17-1.17l0,0c0-.21,0-.42,0-.63s0-.67,0-1a.06.06,0,0,1,0,0,1.36,1.36,0,0,0,0-.18c0-.16,0-.32,0-.48l0,0V150H209.3a40.3,40.3,0,0,0,36.45,37.15,103.92,103.92,0,0,1-27.83,38.31,40.32,40.32,0,0,0-46.59-23.19Z" transform="translate(-46.71 -43.83)"/><path class="cls-2" d="M130.25,176.94a9.85,9.85,0,1,1,6.33,12.39A9.86,9.86,0,0,1,130.25,176.94Zm-26,7.2,12.39-9,9.82,13.52v0c.13.2.28.39.42.58a15.71,15.71,0,0,0,12.75,6.48c.15,0,.29,0,.44,0,.32,0,.65,0,1-.08.16,0,.32,0,.48,0s.21,0,.31-.05c.4-.05.77-.11,1.17-.2h0c.2,0,.41-.12.61-.17s.65-.17,1-.27l0,0,.17,0,.45-.17v0L161,189.61l4.7,14.48a40.31,40.31,0,0,0-24.06,46.15,103.89,103.89,0,0,1-45-14.63A40.32,40.32,0,0,0,104.25,184.14Z" transform="translate(-46.71 -43.83)"/><path class="cls-1" d="M324,56.3v88.2c0,.69,0,1.38,0,2.08s0,1.22,0,1.83a40.56,40.56,0,1,0,30.72-41.2v14.92a79.81,79.81,0,0,1,9.8-.75,25.2,25.2,0,1,1-25.12,27v-3.75c0-.09,0-.17,0-.25V114.73l0,0V56.3Z" transform="translate(-46.71 -43.83)"/><path class="cls-1" d="M554.23,117.91a40.64,40.64,0,0,1,6,7.67l-5.09,5.13.05.05-5.39,5.39a71.11,71.11,0,0,0-5.89-6.8,25.19,25.19,0,0,0-42.57,24.43c.12.39.24.77.37,1.15s.19.56.3.83c0,.11.06.21.11.32s.09.16.12.23c.13.3.25.59.39.89l.1.25c.14.3.29.57.44.87s.26.45.39.67l.35.6c.19.32.39.64.6,1l.13.2c.17.25.34.53.53.78,0,0,.05,0,.07.07.48.64,1,1.29,1.54,1.89.27.29.57.57.85.85,0,0,0,.07.05.09a25.2,25.2,0,0,0,35.62,0,77.63,77.63,0,0,0,6.4-7.46l10.55,10.55a40.59,40.59,0,1,1-6-49.6Z" transform="translate(-46.71 -43.83)"/><path class="cls-1" d="M479.29,175.28a40.35,40.35,0,0,0,6-7.74L474.75,157a85.27,85.27,0,0,1-6.35,7.45,25.2,25.2,0,1,1-4-38.89L443,146.89l10.59,10.59,26.69-26.69-.05-.09,5.09-5.12a40.57,40.57,0,1,0-6,49.71Z" transform="translate(-46.71 -43.83)"/><text class="cls-3" transform="translate(295.16 169.01)">ZAPORIZHZHYA</text></svg>