<svg id="Capa_1" data-name="Capa 1" xmlns="http://www.w3.org/2000/svg" viewBox="0 0 401.83 100.98"><defs><style>.cls-1{fill:#fff;}</style></defs><title>course</title><path class="cls-1" d="M30.86,100,72.32,0,1.59,29.27l41.59.06Z" transform="translate(-1.59 0.93)"/><path class="cls-1" d="M53.93,70.55,81.57,3.88,101.09,51,81.46,31.44Z" transform="translate(-1.59 0.93)"/><path class="cls-1" d="M167.56,36.78c0,8.76-6.95,13.82-20.27,13.82h-26.2V-.06h24.75C158.51-.06,165,5.23,165,13.12a12.18,12.18,0,0,1-6.73,11.15C163.94,26.07,167.56,30.42,167.56,36.78Zm-34.82-28V20.72h11.65c5.72,0,8.83-2,8.83-6s-3.11-5.94-8.83-5.94Zm23,26.78c0-4.27-3.26-6.3-9.34-6.3H132.74V41.78h13.68C152.5,41.78,155.76,39.9,155.76,35.55Z" transform="translate(-1.59 0.93)"/><path class="cls-1" d="M215.69,41.2v9.41H176.46V-.06h38.29V9.35H188.11v11h23.52v9.12H188.11V41.2Z" transform="translate(-1.59 0.93)"/><path class="cls-1" d="M221,45.62l4-8.83a29.8,29.8,0,0,0,16.72,5.28c6.95,0,9.77-2.32,9.77-5.43,0-9.48-29.46-3-29.46-21.79,0-8.61,6.95-15.78,21.35-15.78,6.37,0,12.88,1.52,17.59,4.49l-3.62,8.9a28.62,28.62,0,0,0-14-4c-6.95,0-9.63,2.61-9.63,5.79,0,9.34,29.46,2.9,29.46,21.5,0,8.47-7,15.71-21.5,15.71C233.63,51.48,225.53,49.09,221,45.62Z" transform="translate(-1.59 0.93)"/><path class="cls-1" d="M281,9.5H264.75V-.06h44.15V9.5H292.69V50.61H281Z" transform="translate(-1.59 0.93)"/><path class="cls-1" d="M120.09,80.17c0-11.61,8.71-19.81,21-19.81,7.55,0,13.57,3.12,16.55,9l-7,4.06A11,11,0,0,0,141,68.05c-6.68,0-11.76,4.64-11.76,12.12S134.31,92.29,141,92.29a11,11,0,0,0,9.65-5.37l7,4.06c-3,5.81-9,9.07-16.55,9.07C128.8,100.06,120.09,91.78,120.09,80.17Z" transform="translate(-1.59 0.93)"/><path class="cls-1" d="M161.67,80.17c0-11.61,8.71-19.81,20.61-19.81S203,68.56,203,80.17s-8.64,19.89-20.68,19.89S161.67,91.78,161.67,80.17Zm32.15,0c0-7.4-4.94-12.12-11.54-12.12s-11.47,4.72-11.47,12.12,4.94,12.12,11.47,12.12S193.82,87.57,193.82,80.17Z" transform="translate(-1.59 0.93)"/><path class="cls-1" d="M249.2,60.79V99.55h-8.64V94.61a15.83,15.83,0,0,1-12.48,5.44c-9.94,0-16.69-5.44-16.69-17.13V60.79h9.07V81.7c0,7,3.34,10.38,9.07,10.38,6.31,0,10.6-3.92,10.6-11.69V60.79Z" transform="translate(-1.59 0.93)"/><path class="cls-1" d="M283.52,60.36V69a11.52,11.52,0,0,0-2.1-.22c-6.89,0-11.25,4.06-11.25,12v18.8H261.1V60.79h8.64v5.66C272.35,62.39,277.06,60.36,283.52,60.36Z" transform="translate(-1.59 0.93)"/><path class="cls-1" d="M286.93,95.7l3.48-6.89a26.08,26.08,0,0,0,13.5,3.85c5.73,0,8.13-1.6,8.13-4.28,0-7.4-24-.44-24-15.89,0-7.33,6.6-12.12,17.06-12.12,5.15,0,11,1.23,14.52,3.34l-3.48,6.89a21.21,21.21,0,0,0-11.1-2.9c-5.52,0-8.13,1.81-8.13,4.35,0,7.84,24,.87,24,16,0,7.26-6.68,12-17.56,12C296.88,100.06,290.42,98.17,286.93,95.7Z" transform="translate(-1.59 0.93)"/><path class="cls-1" d="M365,83.07H334.61c1.09,5.66,5.81,9.29,12.56,9.29a13.89,13.89,0,0,0,10.52-4.21l4.86,5.59c-3.48,4.14-8.93,6.31-15.6,6.31-13,0-21.41-8.35-21.41-19.89s8.49-19.81,20-19.81c11.32,0,19.6,7.91,19.6,20C365.17,81.11,365.1,82.2,365,83.07Zm-30.48-6h22c-.73-5.59-5-9.43-11-9.43A10.71,10.71,0,0,0,334.54,77.05Z" transform="translate(-1.59 0.93)"/><path class="cls-1" d="M369.45,95.7l3.48-6.89a26.08,26.08,0,0,0,13.5,3.85c5.73,0,8.13-1.6,8.13-4.28,0-7.4-24-.44-24-15.89,0-7.33,6.6-12.12,17.06-12.12,5.15,0,11,1.23,14.52,3.34l-3.48,6.89a21.21,21.21,0,0,0-11.1-2.9c-5.52,0-8.13,1.81-8.13,4.35,0,7.84,24,.87,24,16,0,7.26-6.68,12-17.56,12C379.39,100.06,372.93,98.17,369.45,95.7Z" transform="translate(-1.59 0.93)"/></svg>