<svg id="Слой_1" data-name="Слой 1" xmlns="http://www.w3.org/2000/svg" viewBox="0 0 518.53 153.62"><defs><style>.cls-1,.cls-4{fill:#fff;}.cls-2{fill:#63a2d3;}.cls-2,.cls-3,.cls-4,.cls-6,.cls-7{fill-rule:evenodd;}.cls-3{fill:#e0a24c;}.cls-5{fill:#1b1815;}.cls-6{fill:#54a58c;}.cls-7{fill:#3d655a;}</style></defs><title>likeit</title><path class="cls-1" d="M6.24,149.28V145H17.07v4.31Zm0-8.66v-4.38H17.07v4.38Zm13,13,2.14-2.14V145l-2.14-2.17,2.14-2.17V134.1l-2.14-2.2H1.89v21.73Zm23.69,0v-4.35H28.84V145h13v-4.35h-13v-4.38H42.93v-4.35H24.49v21.73Zm20.15,0,2.14-2.14v-8.72l-2.14-2.17h-13v-4.35H60.91v2.17h4.31V134.1l-2.14-2.2H47.87l-2.14,2.2v9.31L47.87,145h13v4.31H50.07v-2.14H45.73v4.35l2.14,2.14Zm16.27,0V136.24h7.54v-4.35H67.39v4.35H75v17.38Zm39.49,0,2.14-2.14v-4.35h-4.32v2.14H105.82v-13h10.83v2.17H121V134.1l-2.14-2.2H103.62l-2.14,2.2v17.38l2.14,2.14Zm9.28-4.35v-13h10.83v13Zm13,4.35,2.14-2.14V134.1l-2.14-2.2H125.91l-2.14,2.2v17.38l2.14,2.14Zm9.59,0V139l5.8,8.35h3.63l5.68-8.35v14.65h4.35V131.89H166l-7.7,10.52-7.57-10.52h-4.35v21.73Zm26.91-10.83v-6.55h10.83v6.55Zm0,10.83v-6.49h13l2.14-2.17V134.1l-2.14-2.2H173.28v21.73Zm36.38,0v-4.35H199.91V145h13v-4.35h-13v-4.38H214v-4.35H195.57v21.73Zm13.81,0V136.24h7.54v-4.35H215.87v4.35h7.61v17.38Zm14.06,0V131.89h-4.35v21.73Zm14.12,0V136.24h7.54v-4.35H244.06v4.35h7.61v17.38Zm14.06,0V131.89h-4.35v21.73Zm7.45-4.35v-13h10.83v13Zm13,4.35,2.14-2.14V134.1l-2.14-2.2H275.32l-2.14,2.2v17.38l2.14,2.14Zm24.74,0V131.89H311v14.47l-10.83-14.47h-4.35v21.73h4.35v-14.5L311,153.62Zm19.87,0V145h13v-4.35h-13v-4.38h14.09v-4.35H330.79v21.73Zm20.61-4.35v-13h10.83v13Zm13,4.35,2.14-2.14V134.1l-2.14-2.2H353.54l-2.14,2.2v17.38l2.14,2.14Zm9.59-10.83v-6.55h10.83v6.55Zm15.15,10.83v-4.35l-2.14-2.14,2.14-2.17V134.1l-2.14-2.2H374v21.73h4.35v-6.49h6.49l2.17,2.14,2.17,2.2v2.14Zm32.87,0,2.14-2.14V141.17h-9.78v4.35h5.46v3.76H413.36v-13H424.2v2.17h4.31V134.1l-2.14-2.2H411.16L409,134.1v17.38l2.14,2.14Zm23.69,0v-4.35H436V145h13v-4.35H436v-4.38h14.09v-4.35H431.61v21.73Zm21.23,0v-4.35H457.19V145h13v-4.35h-13v-4.38h14.09v-4.35H452.85v21.73Zm7.14,0V145h6.49l4.35,4.31v4.35h4.31v-6.49l-4.31-4.35,4.31-4.35v-6.55h-4.31v4.38l-4.35,4.35h-6.49v-8.72h-4.35v21.73Zm35.3,0,2.14-2.14v-8.72l-2.14-2.17h-13v-4.35h10.83v2.17h4.32V134.1l-2.14-2.2H498.51l-2.14,2.2v9.31l2.14,1.55h13v4.31H500.72v-2.14h-4.35v4.35l2.14,2.14Z"/><path class="cls-2" d="M29.88,113.82H44.44c-.33-.67-27.13-52.91-29.88-58.34C17.45,50,43.84.87,44.36,0H29.79C29.28.87,2.88,50,0,55.48c2.75,5.43,29.55,57.68,29.88,58.34Z"/><path class="cls-3" d="M56,113.82H70.57c-.33-.67-27.13-52.91-29.88-58.34C43.58,50,70,.87,70.49,0H55.92C55.4.87,29,50,26.13,55.48c2.75,5.43,29.55,57.68,29.88,58.34Z"/><path class="cls-2" d="M488.66,113.82H474.09c.33-.67,27.13-52.91,29.88-58.34C501.08,50,474.69.87,474.17,0h14.57c.52.87,26.91,50,29.79,55.48-2.75,5.43-29.55,57.68-29.88,58.34Z"/><path class="cls-3" d="M462.53,113.82H448c.33-.67,27.13-52.91,29.88-58.34C475,50,448.56.87,448,0h14.57c.52.87,26.91,50,29.79,55.48-2.75,5.43-29.55,57.68-29.88,58.34Z"/><path class="cls-4" d="M85.48,113.82H433.06l29.88-58.35L433.14,0H85.39C84.88.87,58.48,50,55.6,55.48c2.75,5.43,29.55,57.68,29.88,58.35Z"/><path class="cls-5" d="M193.59,34.93V79.83H231.7v-9H202.57V34.93Zm51.58,44.91V34.93h-9V79.83Zm15.4,0V61.94H274l9,8.92v9h8.92V66.43l-8.92-9,8.92-9V34.93H283v9l-9,9H260.57v-18h-9V79.83Zm75.19,0v-9H306.63V61.94h26.88V53H306.63v-9h29.13v-9H297.65V79.83Zm40.42,0V34.93h-9V79.83Zm29.19,0V43.91H421v-9H380.67v9h15.72V79.83Z"/><polygon class="cls-6" points="129.42 80.08 136.1 86.76 142.78 80.08 136.1 73.4 129.42 80.08 129.42 80.08"/><polygon class="cls-6" points="137.21 72.29 143.89 78.97 158.44 64.42 151.76 57.74 137.21 72.29 137.21 72.29"/><polygon class="cls-6" points="113.71 48.79 120.39 55.47 135 40.86 128.32 34.18 113.71 48.79 113.71 48.79"/><polygon class="cls-6" points="127.07 64.37 142.72 48.73 136.03 42.05 120.39 57.69 112.66 49.96 105.98 56.64 128.31 78.97 134.99 72.29 127.07 64.37 127.07 64.37"/><polygon class="cls-6" points="152.91 56.58 159.59 63.26 166.28 56.58 159.59 49.9 152.91 56.58 152.91 56.58"/><polygon class="cls-6" points="129.42 33.08 136.1 39.77 142.78 33.08 136.1 26.4 129.42 33.08 129.42 33.08"/><polygon class="cls-6" points="137.21 40.87 145.12 48.79 129.42 64.5 136.1 71.18 151.8 55.47 159.56 63.23 166.24 56.55 143.89 34.19 137.21 40.87 137.21 40.87"/><polygon class="cls-3" points="129.42 80.08 136.1 86.76 142.78 80.08 136.1 73.4 129.42 80.08 129.42 80.08"/><polygon class="cls-6" points="137.21 72.29 143.89 78.97 158.44 64.42 151.76 57.74 137.21 72.29 137.21 72.29"/><polygon class="cls-7" points="113.71 48.79 120.39 55.47 135 40.86 128.32 34.18 113.71 48.79 113.71 48.79"/><polygon class="cls-6" points="127.07 64.37 142.72 48.73 136.03 42.05 120.39 57.69 112.66 49.96 105.98 56.64 128.31 78.97 134.99 72.29 127.07 64.37 127.07 64.37"/><polygon class="cls-6" points="152.91 56.58 159.59 63.26 166.28 56.58 159.59 49.9 152.91 56.58 152.91 56.58"/><polygon class="cls-3" points="129.42 33.08 136.1 39.77 142.78 33.08 136.1 26.4 129.42 33.08 129.42 33.08"/><polygon class="cls-7" points="137.21 40.87 145.12 48.79 129.42 64.5 136.1 71.18 151.8 55.47 159.56 63.23 166.24 56.55 143.89 34.19 137.21 40.87 137.21 40.87"/></svg>