<svg xmlns="http://www.w3.org/2000/svg" viewBox="0 0 253.75 253.69"><title>a</title><path d="M127.56,252.52h.12A126.81,126.81,0,0,0,254.5,125.71h0A126.87,126.87,0,0,0,127.63-1.17h0A126.87,126.87,0,0,0,.75,125.71h0A126.81,126.81,0,0,0,127.56,252.52Z" transform="translate(-0.75 1.17)" fill="#fff"/><path d="M149.48,126.57c-.76-14.81-11.76-23.72-25-23.72h-.5c-15.32,0-23.82,12.05-23.82,25.74,0,15.33,10.28,25,23.77,25,15,0,24.91-11,25.63-24ZM124,89.59a38.39,38.39,0,0,1,26.94,11.61v0c0-3.4,2.29-6,5.47-6h.8c5,0,6,4.7,6,6.19l0,52.9a3.43,3.43,0,0,0,5.75,3c8.5-8.73,18.65-44.88-5.28-65.82C141.4,72,111.47,75.25,95.55,86.23,78.62,97.9,67.8,123.73,78.32,148c11.47,26.47,44.28,34.36,63.78,26.48,9.88-4,14.44,9.37,4.18,13.73-15.5,6.6-58.63,5.94-78.78-29-13.61-23.57-12.89-65,23.21-86.52,27.62-16.44,64-11.89,86,11,23,24,21.61,68.87-.77,86.32-10.14,7.93-25.21.21-25.11-11.34l-.1-3.78a37.69,37.69,0,0,1-26.7,11.1c-20.23,0-38-17.8-38-38,0-20.43,17.8-38.44,38-38.44h0" transform="translate(-0.75 1.17)"/></svg>