<svg xmlns="http://www.w3.org/2000/svg" viewBox="0 0 306.23 306.23"><title>email</title><circle cx="153.11" cy="153.11" r="153.11" fill="#fff"/><path d="M220.11,216.26a13.94,13.94,0,0,0,9.55-3.6l-46.22-46.22-3.2,2.3q-5.19,3.82-8.42,6a51.75,51.75,0,0,1-8.6,4.37,26.21,26.21,0,0,1-10,2.23H153a26.2,26.2,0,0,1-10-2.23,51.62,51.62,0,0,1-8.6-4.37q-3.23-2.14-8.42-6l-3.19-2.31L76.56,212.66a14,14,0,0,0,9.55,3.6Z" fill="#020608"/><path d="M82.62,137.34a48.22,48.22,0,0,1-9.2-7.92v70.32L114.16,159Q101.94,150.46,82.62,137.34Z" fill="#020608"/><path d="M223.7,137.34Q205.1,149.93,192.08,159l40.72,40.72V129.42A50.18,50.18,0,0,1,223.7,137.34Z" fill="#020608"/><path d="M220.11,90h-134q-7,0-10.79,4.73a18.37,18.37,0,0,0-3.78,11.84q0,5.73,5,12.43a45.17,45.17,0,0,0,10.65,10.51q3.09,2.19,18.66,13c5.6,3.88,10.47,7.27,14.66,10.19l9.19,6.43,1.36,1,2.51,1.81q3,2.14,4.92,3.46t4.73,3a27.7,27.7,0,0,0,5.24,2.46,14.5,14.5,0,0,0,4.55.82h.18a14.5,14.5,0,0,0,4.55-.82,27.59,27.59,0,0,0,5.23-2.46q2.78-1.64,4.74-3t4.92-3.46l2.51-1.81,1.36-1,9.21-6.4,33.39-23.19a43.29,43.29,0,0,0,11.11-11.2,24.08,24.08,0,0,0,4.46-13.75A14.68,14.68,0,0,0,220.11,90Z" fill="#020608"/></svg>