<svg xmlns="http://www.w3.org/2000/svg" viewBox="0 0 253.75 253.75"><title>fb</title><path d="M127.29,252.75h.12A126.81,126.81,0,0,0,254.23,125.94v-.06A126.87,126.87,0,0,0,127.36-1h0A126.87,126.87,0,0,0,.48,125.87v.06A126.81,126.81,0,0,0,127.29,252.75Z" transform="translate(-0.48 1)" fill="#fff"/><path d="M139.29,206.4V136.07h23.6l3.53-27.41H139.29V91.17c0-7.93,2.2-13.34,13.58-13.34h14.51V53.31a194.61,194.61,0,0,0-21.15-1.08C125.31,52.23,111,65,111,88.46v20.21H87.32v27.41H111V206.4Z" transform="translate(-0.48 1)"/></svg>