<svg xmlns="http://www.w3.org/2000/svg" viewBox="0 0 253.75 253.75"><title>in</title><path d="M127.29,252.16h.12A126.81,126.81,0,0,0,254.23,125.34v-.06A126.87,126.87,0,0,0,127.36-1.59h0A126.87,126.87,0,0,0,.48,125.28v.06A126.81,126.81,0,0,0,127.29,252.16Z" transform="translate(-0.48 1.59)" fill="#fff"/><path d="M67.37,101.12H93.09v82.73H67.37ZM80.23,60a14.91,14.91,0,1,1-14.9,14.9A14.91,14.91,0,0,1,80.23,60" transform="translate(-0.48 1.59)"/><path d="M109.21,101.12h24.67v11.3h.35c3.43-6.5,11.82-13.36,24.33-13.36,26,0,30.82,17.13,30.82,39.41v45.38H163.7V143.61c0-9.6-.19-21.94-13.36-21.94-13.38,0-15.42,10.45-15.42,21.24v40.92h-25.7Z" transform="translate(-0.48 1.59)"/></svg>