<svg xmlns="http://www.w3.org/2000/svg" viewBox="0 0 253.75 253.75"><title>inst</title><path d="M127.54,252.75h.12A126.81,126.81,0,0,0,254.48,125.94v-.06A126.87,126.87,0,0,0,127.61-1h0A126.87,126.87,0,0,0,.73,125.87v.06A126.81,126.81,0,0,0,127.54,252.75Z" transform="translate(-0.73 1)" fill="#fff"/><path d="M127.61,72.54c17.37,0,19.43.07,26.29.38A36,36,0,0,1,166,75.16,21.55,21.55,0,0,1,178.32,87.5a36,36,0,0,1,2.24,12.08c.31,6.86.38,8.92.38,26.29s-.07,19.43-.38,26.29a36,36,0,0,1-2.24,12.08A21.55,21.55,0,0,1,166,176.59a36,36,0,0,1-12.08,2.24c-6.86.31-8.92.38-26.29.38s-19.43-.07-26.29-.38a36,36,0,0,1-12.08-2.24,21.55,21.55,0,0,1-12.35-12.35,36,36,0,0,1-2.24-12.08c-.31-6.86-.38-8.92-.38-26.29s.07-19.43.38-26.29A36,36,0,0,1,76.89,87.5,21.55,21.55,0,0,1,89.23,75.16a36,36,0,0,1,12.08-2.24c6.86-.31,8.92-.38,26.29-.38m0-11.72c-17.67,0-19.89.07-26.82.39a47.75,47.75,0,0,0-15.79,3,33.27,33.27,0,0,0-19,19,47.76,47.76,0,0,0-3,15.79c-.32,6.94-.39,9.15-.39,26.82s.07,19.89.39,26.82a47.76,47.76,0,0,0,3,15.79,33.27,33.27,0,0,0,19,19,47.76,47.76,0,0,0,15.79,3c6.94.32,9.15.39,26.82.39s19.89-.07,26.82-.39a47.76,47.76,0,0,0,15.79-3,33.27,33.27,0,0,0,19-19,47.75,47.75,0,0,0,3-15.79c.32-6.94.39-9.16.39-26.82s-.07-19.89-.39-26.82a47.75,47.75,0,0,0-3-15.79,33.27,33.27,0,0,0-19-19,47.75,47.75,0,0,0-15.79-3c-6.94-.32-9.15-.39-26.82-.39Z" transform="translate(-0.73 1)"/><path d="M127.61,92.47A33.41,33.41,0,1,0,161,125.87,33.41,33.41,0,0,0,127.61,92.47Zm0,55.1a21.69,21.69,0,1,1,21.69-21.69A21.69,21.69,0,0,1,127.61,147.56Z" transform="translate(-0.73 1)"/><circle cx="161.6" cy="92.15" r="7.81"/></svg>