<svg id="Layer_1" data-name="Layer 1" xmlns="http://www.w3.org/2000/svg" xmlns:xlink="http://www.w3.org/1999/xlink" viewBox="0 0 523.33 265.33"><defs><style>.cls-1{fill:none;}.cls-2{clip-path:url(#clip-path);}.cls-3{fill:#fff;}.cls-4{font-size:31.51px;fill:#fefefe;font-family:Tahoma, Tahoma;}</style><clipPath id="clip-path"><rect class="cls-1" x="-44.67" y="-47.67" width="614.07" height="359.65"/></clipPath></defs><title>Монтажная область 2</title><g class="cls-2"><path class="cls-3" d="M307.47,146.87a23.77,23.77,0,0,1-2.56,11.22,23,23,0,0,1-6.88,8,32.59,32.59,0,0,1-11,5.35A59.57,59.57,0,0,1,272,173H246V87.84h24a128,128,0,0,1,14.52.6,28.3,28.3,0,0,1,9.28,2.83,16.29,16.29,0,0,1,7.12,6.43,18.65,18.65,0,0,1,2.25,9.35,18.08,18.08,0,0,1-3.38,10.75,22.52,22.52,0,0,1-9.34,7.43v.46q8.1,2.06,12.55,7.53a20.92,20.92,0,0,1,4.45,13.66m-16.82-38.23a12.15,12.15,0,0,0-1.09-5.35A8,8,0,0,0,286,99.71a17.27,17.27,0,0,0-6.51-1.89q-3.59-.35-9.92-.34H258v24.94h13.7a46.07,46.07,0,0,0,8.34-.54,17.68,17.68,0,0,0,5.54-2.26,9.36,9.36,0,0,0,3.9-4.35,16.81,16.81,0,0,0,1.16-6.64m4.28,38.7a18.77,18.77,0,0,0-1.46-7.94q-1.46-3.12-5.91-5.3a18.84,18.84,0,0,0-6.24-1.83,86.67,86.67,0,0,0-9.59-.4H258v31.54h9.81a88.21,88.21,0,0,0,12.48-.69,20.21,20.21,0,0,0,8-2.92,14.89,14.89,0,0,0,5-5.08,15.05,15.05,0,0,0,1.58-7.37"/><polygon class="cls-3" points="319.47 173.04 319.47 87.84 376.24 87.84 376.24 97.92 331.5 97.92 331.5 121.27 373.2 121.27 373.2 131.34 331.5 131.34 331.5 162.96 376.24 162.96 376.24 173.04 319.47 173.04"/><path class="cls-3" d="M414.68,174.56a63.54,63.54,0,0,1-16.76-1.91,85.62,85.62,0,0,1-13-4.72V153.75h.85a44,44,0,0,0,13.5,8.14,40.66,40.66,0,0,0,14.54,2.88q10,0,15.08-3.92a13.45,13.45,0,0,0,2.43-18.61q-2.67-3.2-8.51-4.75-4.2-1.14-7.67-1.89t-8.7-2a43.43,43.43,0,0,1-8.4-2.92,23.62,23.62,0,0,1-6.57-4.63,19.84,19.84,0,0,1-4.35-6.61,23.07,23.07,0,0,1-1.55-8.78q0-10.35,8.58-17.36t21.9-7a69.58,69.58,0,0,1,14.39,1.43A60.22,60.22,0,0,1,443,91.81v13.57h-.91A40.35,40.35,0,0,0,431,98.88a36.86,36.86,0,0,0-14.17-2.78q-8.39,0-13.56,3.69a11.37,11.37,0,0,0-5.17,9.69,12,12,0,0,0,3,8.63A18,18,0,0,0,410,122.8q3.83,1,9.37,2.2t9.19,2.26q9.37,2.69,13.69,8.12a20.83,20.83,0,0,1,4.32,13.38,24,24,0,0,1-2.16,9.84,23.21,23.21,0,0,1-6.05,8.23,32,32,0,0,1-9.89,5.72,40.67,40.67,0,0,1-13.78,2"/><polygon class="cls-3" points="480.07 173.04 480.07 97.92 449.61 97.92 449.61 87.84 522.55 87.84 522.55 97.92 492.1 97.92 492.1 173.04 480.07 173.04"/><text class="cls-4" transform="translate(299.11 206.38)">ZAPORIZHZHYA</text><path class="cls-3" d="M200.75,173.15l-20-11.51H128.64l-20,11.51c19.1,33.19,76.22,87.54,138.1,92.24-21.56-12.08-55.88-55.48-46-92.24"/><path class="cls-3" d="M160,110.79h0l-.39-.68Zm56.84-109c.32,24.72-20.09,76.13-56.86,86v23l26.07,45.16L206,167.49c19.19-33.14,37.7-109.77,10.83-165.72"/><path class="cls-3" d="M125.36,155.95h0l-.39.68Zm26.08-68.2C113.15,87.69,37.52,110,2.52,161.24c21.25-12.64,76-20.67,102.89,6.25l19.95-11.54,26.07-45.15Z"/><path class="cls-3" d="M142.49,142.79A12.22,12.22,0,1,1,154.72,155a12.22,12.22,0,0,1-12.22-12.22"/></g></svg>